<svg width="128" height="128" xmlns="http://www.w3.org/2000/svg">
 <title/>

 <g>
  <title>background</title>
  <rect fill="none" id="canvas_background" height="402" width="582" y="-1" x="-1"/>
 </g>
 <g>
  <title>Layer 1</title>
  <path fill="#ff0000" id="svg_1" d="m120,56a8,8 0 0 0 -7.74,6l-10.26,0a37.86,37.86 0 0 0 -9.72,-23.4l7.31,-7.31a8,8 0 1 0 -2.83,-2.83l-7.36,7.31a37.86,37.86 0 0 0 -23.4,-9.72l0,-10.31a8,8 0 1 0 -4,0l0,10.31a37.86,37.86 0 0 0 -23.4,9.72l-7.31,-7.31a8,8 0 1 0 -2.83,2.83l7.31,7.31a37.86,37.86 0 0 0 -9.72,23.4l-10.31,0a8,8 0 1 0 0,4l10.31,0a37.86,37.86 0 0 0 9.72,23.4l-7.31,7.31a8,8 0 1 0 2.83,2.83l7.31,-7.31a37.86,37.86 0 0 0 23.4,9.77l0,10.31a8,8 0 1 0 4,0l0,-10.31a37.86,37.86 0 0 0 23.4,-9.72l7.31,7.31a8,8 0 1 0 2.83,-2.83l-7.31,-7.36a37.86,37.86 0 0 0 9.77,-23.4l10.31,0a8,8 0 1 0 7.69,-10zm-19.23,-34.43a4,4 0 1 1 -1.17,2.83a4,4 0 0 1 1.17,-2.83zm-40.77,-13.57a4,4 0 1 1 4,4a4,4 0 0 1 -4,-4zm-38.43,19.23a4,4 0 0 1 5.66,-5.66a4,4 0 0 1 -5.66,5.66zm-13.57,40.77a4,4 0 1 1 4,-4a4,4 0 0 1 -4,4zm19.23,38.43a4,4 0 0 1 -5.66,-5.66a4,4 0 0 1 5.66,5.66zm40.77,13.57a4,4 0 1 1 -4,-4a4,4 0 0 1 4,4zm-2.34,-32.8a4,4 0 0 1 -5.66,5.66a4,4 0 0 1 5.66,-5.66zm-1.66,10.8a34,34 0 1 1 34,-34a34,34 0 0 1 -34,34zm57.66,-40.8a4,4 0 1 1 4,-4a4,4 0 0 1 -5.66,14.8l1.66,-10.8z"/>
  <path fill="#ff0000" id="svg_2" d="m40.34,58.34a8,8 0 1 0 11.32,0a8,8 0 0 0 -11.32,0zm8.49,8.49a4,4 0 1 1 0,-5.66a4,4 0 0 1 0,5.66z"/>
  <path fill="#ff0000" id="svg_3" d="m58.34,40.34a8,8 0 1 0 11.32,0a8,8 0 0 0 -11.32,0zm8.49,8.49a4,4 0 1 1 0,-5.66a4,4 0 0 1 0,5.66z"/>
  <path fill="#ff0000" id="svg_4" d="m76.34,58.34a8,8 0 1 0 11.32,0a8,8 0 0 0 -11.32,0zm8.49,8.49a4,4 0 1 1 0,-5.66a4,4 0 0 1 0,5.66z"/>
  <path fill="#ff0000" id="svg_5" d="m58.34,76.34a8,8 0 1 0 11.32,0a8,8 0 0 0 -11.32,0zm8.49,8.49a4,4 0 1 1 0,-5.66a4,4 0 0 1 0,5.66z"/>
 </g>
</svg>